<svg xmlns="http://www.w3.org/2000/svg" viewBox="0 0 64 80" x="0px" y="0px"><path d="M11.70698,17.70669l4.29297-4.29297v11.17188l-4,4v-2.56592c-.02032-1.30811-1.97723-1.31946-2,.00006v30.47992c.12231,2.8158,2.24164,5.55005,5.50006,5.5H52.99995c1.3158-.02203,1.31268-1.97858,0-2h-2.58734c-2.01233-1.97046-1.7334-5.29559,.00726-7,1.83801,.22034,3.59576-1.08154,3.58008-3.00006v-1.98041c0-.55273-.44775-1-1-1s-1,.44727-1,1v1.98047c0,.55176-.44873,1-1,1H17.99995c.00012-14.20355-.00024-32.49219,.00012-47H50.99995c.55127,0,1,.44873,1,1v30.98047c.01038,1.29602,1.9809,1.32758,2-.00006V4.99966c0-1.6543-1.3457-3-3-3H12.99995c-1.6543,0-3,1.3457-3,3l.00006,11.99994c-.03119,.86511,1.11884,1.33704,1.70697,.70709Zm.29297,13.70703l4-4v4.17188l-4,4v-4.17188Zm0,7l4-4v4.17188l-4,4v-4.17188Zm0,7l4-4v4.17188l-4,4v-4.17188Zm4,3v2.58594c-1.21161-.06104-2.42548,.21973-3.45264,.8667l3.45264-3.45264Zm31.95752,4.58594c-1.18225,1.64325-1.31244,5.17761-.0332,7H15.50007c-4.08533-.12488-4.53241-5.34845-1.40253-6.70386,.44061-.19177,.89978-.28186,1.4024-.29614H47.95747ZM11.99995,4.99966c0-.55127,.44873-1,1-1h2.58594l-3.58594,3.58594v-2.58594Zm0,5.41406l4-4v4.17188l-4,4v-4.17188Z"/><path d="M41.99995,5.99966h-13c-1.6543,0-3,1.3457-3,3v1h-2c-2.20557,0-4,1.79443-4,4v28c0,2.20605,1.79443,4,4,4h22c2.20557,0,4-1.79395,4-4V13.99966c0-2.20557-1.79443-4-4-4h-1v-1c0-1.6543-1.3457-3-3-3Zm-14,3c0-.55127,.44873-1,1-1h13c.55127,0,1,.44873,1,1v4c0,.55127-.44873,1-1,1h-13c-.55127,0-1-.44873-1-1v-4Zm18,3c1.10303,0,2,.89697,2,2v28c0,1.10254-.89697,2-2,2H23.99995c-1.10303,0-2-.89746-2-2V13.99966c0-1.10303,.89697-2,2-2h2v1c0,1.6543,1.3457,3,3,3h13c1.6543,0,3-1.3457,3-3v-1h1Z"/><path d="M30.10444,11.08767c.47919,.57587,1.25397,1.50708,1.28973,1.55005,.11951,.1701,.48022,.38104,.76984,.36194,.67395,.06793,1.26715-1.03979,1.66504-1.43652,1.49109,1.94739,1.84332,1.93188,3.33154-.00244l.90186,1.08008c.37988,.45508,1.15527,.45508,1.53516,0l1.66992-2c.83441-1.0083-.69318-2.28113-1.53516-1.28223l-.90234,1.08105c-1.49414-1.94098-1.84296-1.94556-3.33643-.00293-1.48804-1.94281-1.84283-1.93732-3.3291,0,0,0-.85742-1.0304-.89471-1.07513-.78229-.95697-2.32977,.15448-1.57599,1.22974,.0769,.09985,.14856,.17859,.41064,.4964Z"/><path d="M39.7201,21.51291c-4.79779-3.55896-13.22369-.50934-12.67889,7.30066-5.25659,4.7804-2.04291,7.58722,3.27936,5.66107,5.38776,4.03729,13.40173-.45563,12.6156-7.21344,4.47296-3.95526,3.19409-7.87311-3.21606-5.74829Zm-13.36664,11.5307c-.02374-.16895,.20667-.83173,1.26276-1.96954,.26715,.63922,.62018,1.23206,1.03589,1.7749-.89075,.19916-1.67804,.27667-2.29865,.19464Zm2.64648-5.04395c.13147-7.01477,9.90143-8.22485,11.78937-1.55133-2.69507,2.29358-6.73065,4.59412-10.06799,5.78851-.98676-.9873-1.65613-2.39587-1.72137-4.23718Zm3.76758,5.55042c2.68396-1.14484,5.70123-2.81317,8.1366-4.6178-.68231,4.29089-4.90796,5.83185-8.1366,4.6178Zm10.87891-10.59436c-.21057,.6106-.65918,1.27991-1.2782,1.97351-.2627-.66589-.59174-1.2702-.987-1.7998,1.49261-.34039,2.16553-.21869,2.2652-.17371Z"/><path d="M6.99995,26.99966c.02136,1.31116,1.97748,1.31683,2-.00006,0-.20404,.04541-4.99994,4-4.99994,1.31677-.02252,1.3114-1.97864,0-2-3.92969,0-3.99902-4.79834-4-5-.02252-1.31726-1.97876-1.31073-2,0,0,.2041-.04541,5-3.99994,5-1.31677,.02246-1.3114,1.97858-.00006,2,3.92969,0,3.99902,4.79834,4,5Zm1-7.97021c.40576,.75049,.95557,1.44287,1.68506,1.97021-.72949,.52734-1.2793,1.21973-1.68506,1.97021-.40576-.75049-.95557-1.44287-1.68506-1.97021,.72949-.52734,1.2793-1.21973,1.68506-1.97021Z"/><path d="M60.99995,40.99966c-3.92969,0-3.99902-4.79785-4-5-.02228-1.31738-1.979-1.31085-2,0,0,.2041-.04541,5-3.99994,5-1.31683,.02209-1.31146,1.97894-.00006,2,3.92969,0,3.99902,4.79785,4,5,.02112,1.31128,1.97778,1.31696,2-.00006,0-.20404,.04541-4.99994,4-4.99994,1.31683-.02216,1.31146-1.97894,0-2Zm-5,2.9707c-.40576-.75098-.95557-1.44336-1.68506-1.9707,.72949-.52734,1.2793-1.21973,1.68506-1.9707,.40576,.75098,.95557,1.44336,1.68506,1.9707-.72949,.52734-1.2793,1.21973-1.68506,1.9707Z"/><text x="0" y="79" fill="#000000" font-size="5px" font-weight="bold" font-family="'Helvetica Neue', Helvetica, Arial-Unicode, Arial, Sans-serif">Created by LUTFI GANI AL ACHMAD</text><text x="0" y="84" fill="#000000" font-size="5px" font-weight="bold" font-family="'Helvetica Neue', Helvetica, Arial-Unicode, Arial, Sans-serif">from the Noun Project</text></svg>